<svg width="23" height="23" viewBox="0 0 23 23" fill="none" xmlns="http://www.w3.org/2000/svg">
<rect x="0.962501" y="0.826881" width="20.5021" height="20.6377" rx="10.2511" stroke="white" stroke-width="1.18672"/>
<path d="M7.55309 16.1458V14.568L11.2397 11.1544C11.5532 10.851 11.8162 10.5779 12.0286 10.3352C12.2443 10.0925 12.4079 9.85478 12.5191 9.62216C12.6304 9.38616 12.686 9.13163 12.686 8.85855C12.686 8.55512 12.6169 8.29384 12.4787 8.0747C12.3404 7.85219 12.1516 7.68194 11.9123 7.56394C11.6729 7.44257 11.4015 7.38189 11.0981 7.38189C10.7812 7.38189 10.5047 7.44594 10.2687 7.57406C10.0327 7.70217 9.85068 7.88591 9.72257 8.12527C9.59445 8.36464 9.5304 8.64952 9.5304 8.97991H7.45195C7.45195 8.30227 7.60535 7.71397 7.91214 7.21501C8.21894 6.71604 8.64879 6.33002 9.20169 6.05694C9.75459 5.78386 10.3918 5.64732 11.1133 5.64732C11.855 5.64732 12.5006 5.7788 13.0501 6.04177C13.603 6.30136 14.0329 6.6621 14.3397 7.12398C14.6464 7.58585 14.7998 8.11516 14.7998 8.71189C14.7998 9.10297 14.7223 9.48899 14.5672 9.86996C14.4155 10.2509 14.1441 10.674 13.753 11.1393C13.362 11.6012 12.8107 12.1557 12.0994 12.803L10.5873 14.2848V14.3556H14.9364V16.1458H7.55309Z" fill="white"/>
</svg>
