<svg width="23" height="23" viewBox="0 0 23 23" fill="none" xmlns="http://www.w3.org/2000/svg">
<rect x="1.42368" y="0.826881" width="20.5021" height="20.6377" rx="10.2511" stroke="white" stroke-width="1.18672"/>
<path d="M11.3425 16.2873C10.5873 16.2873 9.91469 16.1576 9.3247 15.898C8.73808 15.635 8.27452 15.2743 7.93401 14.8157C7.59687 14.3539 7.42325 13.8212 7.41313 13.2177H9.61801C9.63149 13.4706 9.71409 13.6931 9.8658 13.8853C10.0209 14.074 10.2265 14.2207 10.4828 14.3252C10.739 14.4297 11.0272 14.482 11.3475 14.482C11.6813 14.482 11.9763 14.423 12.2325 14.305C12.4887 14.187 12.6893 14.0235 12.8343 13.8145C12.9793 13.6054 13.0517 13.3644 13.0517 13.0913C13.0517 12.8148 12.9742 12.5704 12.8191 12.358C12.6674 12.1423 12.4483 11.9737 12.1617 11.8523C11.8785 11.7309 11.5414 11.6703 11.1503 11.6703H10.1844V10.0621H11.1503C11.4807 10.0621 11.7723 10.0048 12.0252 9.89018C12.2814 9.77556 12.4803 9.6171 12.6219 9.41482C12.7635 9.20917 12.8343 8.9698 12.8343 8.69672C12.8343 8.43713 12.7719 8.20956 12.6472 8.01402C12.5258 7.81511 12.3539 7.66003 12.1314 7.54877C11.9122 7.43752 11.656 7.38189 11.3627 7.38189C11.066 7.38189 10.7946 7.43583 10.5485 7.54371C10.3024 7.64823 10.1052 7.79825 9.95683 7.99379C9.80849 8.18933 9.72926 8.41858 9.71915 8.68155H7.62047C7.63059 8.08482 7.80084 7.55888 8.13123 7.10375C8.46163 6.64862 8.90665 6.29294 9.4663 6.03671C10.0293 5.77712 10.6648 5.64732 11.3728 5.64732C12.0875 5.64732 12.7129 5.77712 13.249 6.03671C13.785 6.29631 14.2014 6.64693 14.4981 7.08858C14.7981 7.52686 14.9464 8.01908 14.9431 8.56524C14.9464 9.14511 14.7661 9.6289 14.402 10.0166C14.0412 10.4043 13.5709 10.6504 12.9911 10.7549V10.8359C13.753 10.9336 14.3329 11.1983 14.7307 11.6298C15.1319 12.058 15.3308 12.594 15.3274 13.2379C15.3308 13.8279 15.1605 14.3522 14.8167 14.8107C14.4761 15.2692 14.0058 15.6299 13.4057 15.8929C12.8056 16.1559 12.1179 16.2873 11.3425 16.2873Z" fill="white"/>
</svg>
