<svg width="20" height="21" viewBox="0 0 20 21" fill="none" xmlns="http://www.w3.org/2000/svg">
<g clip-path="url(#clip0_2103_489)">
<path d="M15.5402 12.1702C15.4215 12.252 15.283 12.3002 15.1392 12.3099C14.9953 12.3196 14.8516 12.2902 14.723 12.2251C14.4212 12.0546 14.2586 11.6548 14.2586 11.11V9.44025C14.2586 8.63871 13.9411 8.06842 13.41 7.9136C12.5124 7.65099 11.8422 8.75041 11.5835 9.16392L9.99608 11.7332V8.59755C9.97844 7.8744 9.74327 7.4413 9.29841 7.31195C9.00444 7.22572 8.5635 7.261 8.13431 7.91556L4.58518 13.6126C4.11296 12.7091 3.86811 11.7041 3.87183 10.6847C3.87183 7.2512 6.6155 4.45854 9.99608 4.45854C13.3767 4.45854 16.1301 7.2512 16.1301 10.6847V10.7023C16.1301 10.7023 16.1301 10.7141 16.1301 10.72C16.1634 11.3843 15.9479 11.9135 15.5422 12.1702H15.5402ZM17.5 10.6867V10.6533C17.4726 6.46925 14.1175 3.07495 9.99608 3.07495C5.87471 3.07495 2.5 6.48885 2.5 10.6847C2.5 14.8805 5.86295 18.2964 9.99608 18.2964C11.8917 18.2963 13.7152 17.5697 15.0915 16.2661C15.225 16.1402 15.3037 15.9668 15.3103 15.7834C15.3169 15.6 15.2509 15.4214 15.1267 15.2862C15.0673 15.2205 14.9955 15.1671 14.9153 15.1293C14.8352 15.0914 14.7484 15.0698 14.6599 15.0656C14.5714 15.0614 14.4829 15.0747 14.3996 15.1049C14.3162 15.135 14.2397 15.1813 14.1743 15.2411C13.5818 15.8032 12.8818 16.2397 12.1164 16.5245C11.351 16.8093 10.5359 16.9364 9.72011 16.8984C8.90432 16.8603 8.10464 16.6578 7.36907 16.3029C6.63351 15.9481 5.97723 15.4483 5.43964 14.8335L8.63405 9.69894V12.0683C8.63405 13.2069 9.07499 13.5753 9.44539 13.6831C9.81578 13.7909 10.3822 13.7164 10.976 12.7522L12.7397 9.89687C12.7946 9.80477 12.8475 9.72638 12.8946 9.65778V11.11C12.8946 12.1741 13.3218 13.0247 14.0704 13.444C14.4108 13.6278 14.7944 13.7166 15.181 13.7011C15.5675 13.6856 15.9427 13.5663 16.2673 13.3559C17.0904 12.8208 17.5392 11.8527 17.4922 10.6867H17.5Z" fill="#2B6AFF"/>
</g>
<defs>
<clipPath id="clip0_2103_489">
<rect width="20" height="20" fill="white" transform="translate(0 0.574951)"/>
</clipPath>
</defs>
</svg>
