<svg width="20" height="21" viewBox="0 0 20 21" fill="none" xmlns="http://www.w3.org/2000/svg">
<path d="M1 8.17456V15.3246C1 15.9876 1.26339 16.6235 1.73223 17.0923C2.20107 17.5612 2.83696 17.8246 3.5 17.8246H16C16.663 17.8246 17.2989 17.5612 17.7678 17.0923C18.2366 16.6235 18.5 15.9876 18.5 15.3246V8.17456L11.06 12.7521C10.666 12.9944 10.2126 13.1228 9.75 13.1228C9.28745 13.1228 8.83396 12.9944 8.44 12.7521L1 8.17456Z" fill="#66CE85"/>
<path d="M18.5 6.70662V6.57495C18.5 5.91191 18.2366 5.27603 17.7678 4.80718C17.2989 4.33834 16.663 4.07495 16 4.07495H3.5C2.83696 4.07495 2.20107 4.33834 1.73223 4.80718C1.26339 5.27603 1 5.91191 1 6.57495V6.70662L9.095 11.6883C9.29198 11.8095 9.51872 11.8736 9.75 11.8736C9.98128 11.8736 10.208 11.8095 10.405 11.6883L18.5 6.70662Z" fill="#66CE85"/>
</svg>
