<svg width="11" height="11" viewBox="0 0 11 11" fill="none" xmlns="http://www.w3.org/2000/svg">
<path d="M9.77836 4.65815L5.6811 4.65796C5.50017 4.65796 5.35352 4.79838 5.35352 4.97164V6.22509C5.35352 6.39832 5.50017 6.53878 5.68108 6.53878H7.98841C7.73575 7.16669 7.26419 7.69255 6.66255 8.02668L7.64639 9.65765C9.22459 8.78357 10.1576 7.24992 10.1576 5.53311C10.1576 5.28866 10.1388 5.11391 10.1012 4.91714C10.0726 4.76764 9.93706 4.65815 9.77836 4.65815Z" fill="#167EE6"/>
<path d="M5.13426 8.42235C4.0051 8.42235 3.01935 7.83154 2.48993 6.95728L0.786865 7.89732C1.65354 9.33577 3.27711 10.3044 5.13426 10.3044C6.04531 10.3044 6.90497 10.0695 7.64551 9.66015V9.65791L6.66167 8.02692C6.21164 8.27687 5.69087 8.42235 5.13426 8.42235Z" fill="#12B347"/>
<path d="M7.64602 9.65996V9.65773L6.66218 8.02673C6.21215 8.27667 5.69142 8.42217 5.13477 8.42217V10.3042C6.04582 10.3042 6.90551 10.0693 7.64602 9.65996Z" fill="#0F993E"/>
<path d="M2.07788 5.49456C2.07788 4.96156 2.22977 4.4629 2.49072 4.03196L0.787664 3.09192C0.357828 3.79886 0.112549 4.61986 0.112549 5.49456C0.112549 6.36925 0.357828 7.19025 0.787664 7.89719L2.49072 6.95715C2.22977 6.52621 2.07788 6.02755 2.07788 5.49456Z" fill="#FFD500"/>
<path d="M5.13426 2.56689C5.87058 2.56689 6.54693 2.81745 7.07522 3.23422C7.20555 3.33703 7.39497 3.32961 7.51436 3.21528L8.44175 2.32717C8.5772 2.19746 8.56755 1.98514 8.42286 1.86493C7.53774 1.12958 6.3861 0.684814 5.13426 0.684814C3.27711 0.684814 1.65354 1.65347 0.786865 3.09192L2.48993 4.03196C3.01935 3.1577 4.0051 2.56689 5.13426 2.56689Z" fill="#FF4B26"/>
<path d="M7.07573 3.23422C7.20606 3.33703 7.3955 3.32961 7.51487 3.21529L8.44227 2.32717C8.5777 2.19746 8.56804 1.98514 8.42337 1.86493C7.53825 1.12957 6.38661 0.684814 5.13477 0.684814V2.56689C5.87107 2.56689 6.54745 2.81745 7.07573 3.23422Z" fill="#D93F21"/>
</svg>
