<svg width="20" height="19" viewBox="0 0 20 19" fill="none" xmlns="http://www.w3.org/2000/svg">
<path d="M9.274 13.524V6.44H10.726V13.524H9.274ZM10 5.428C9.70667 5.428 9.48667 5.35467 9.34 5.208C9.19333 5.06133 9.12 4.84867 9.12 4.57C9.12 4.27667 9.19333 4.064 9.34 3.932C9.48667 3.78533 9.70667 3.712 10 3.712C10.2347 3.712 10.4327 3.78533 10.594 3.932C10.77 4.064 10.858 4.27667 10.858 4.57C10.858 4.86333 10.77 5.08333 10.594 5.23C10.4327 5.362 10.2347 5.428 10 5.428ZM10 18.21C8.75333 18.21 7.58 17.9753 6.48 17.506C5.38 17.0367 4.412 16.3913 3.576 15.57C2.75467 14.734 2.10933 13.766 1.64 12.666C1.17067 11.566 0.936 10.3927 0.936 9.146C0.936 7.88467 1.17067 6.71133 1.64 5.626C2.10933 4.526 2.75467 3.56533 3.576 2.744C4.412 1.908 5.38 1.25533 6.48 0.785999C7.58 0.316666 8.75333 0.0819988 10 0.0819988C11.2613 0.0819988 12.4347 0.316666 13.52 0.785999C14.62 1.25533 15.5807 1.908 16.402 2.744C17.238 3.56533 17.8907 4.526 18.36 5.626C18.8293 6.71133 19.064 7.88467 19.064 9.146C19.064 10.3927 18.8293 11.566 18.36 12.666C17.8907 13.766 17.238 14.734 16.402 15.57C15.5807 16.3913 14.62 17.0367 13.52 17.506C12.4347 17.9753 11.2613 18.21 10 18.21ZM10 16.978C11.0853 16.978 12.0973 16.78 13.036 16.384C13.9893 15.9733 14.8253 15.4087 15.544 14.69C16.2627 13.9713 16.82 13.1427 17.216 12.204C17.6267 11.2507 17.832 10.2313 17.832 9.146C17.832 8.06067 17.6267 7.04867 17.216 6.11C16.82 5.15667 16.2627 4.32067 15.544 3.602C14.8253 2.88333 13.9893 2.326 13.036 1.93C12.0973 1.51933 11.0853 1.314 10 1.314C8.91467 1.314 7.89533 1.51933 6.942 1.93C6.00333 2.326 5.17467 2.88333 4.456 3.602C3.73733 4.32067 3.17267 5.15667 2.762 6.11C2.366 7.04867 2.168 8.06067 2.168 9.146C2.168 10.2313 2.366 11.2507 2.762 12.204C3.17267 13.1427 3.73733 13.9713 4.456 14.69C5.17467 15.4087 6.00333 15.9733 6.942 16.384C7.89533 16.78 8.91467 16.978 10 16.978Z" fill="#61CD81"/>
</svg>
