<svg width="20" height="21" viewBox="0 0 20 21" fill="none" xmlns="http://www.w3.org/2000/svg">
<path d="M1.66675 7.8125V14.622C1.66675 15.2535 1.9176 15.8591 2.36411 16.3056C2.81063 16.7521 3.41623 17.003 4.0477 17.003H15.9525C16.5839 17.003 17.1895 16.7521 17.6361 16.3056C18.0826 15.8591 18.3334 15.2535 18.3334 14.622V7.8125L11.2477 12.172C10.8725 12.4029 10.4406 12.5251 10.0001 12.5251C9.55956 12.5251 9.12767 12.4029 8.75246 12.172L1.66675 7.8125Z" fill="#0A0A0A"/>
<path d="M1.66675 7.8125V14.622C1.66675 15.2535 1.9176 15.8591 2.36411 16.3056C2.81063 16.7521 3.41623 17.003 4.0477 17.003H15.9525C16.5839 17.003 17.1895 16.7521 17.6361 16.3056C18.0826 15.8591 18.3334 15.2535 18.3334 14.622V7.8125L11.2477 12.172C10.8725 12.4029 10.4406 12.5251 10.0001 12.5251C9.55956 12.5251 9.12767 12.4029 8.75246 12.172L1.66675 7.8125Z" fill="#0A1339"/>
<path d="M1.66675 7.8125V14.622C1.66675 15.2535 1.9176 15.8591 2.36411 16.3056C2.81063 16.7521 3.41623 17.003 4.0477 17.003H15.9525C16.5839 17.003 17.1895 16.7521 17.6361 16.3056C18.0826 15.8591 18.3334 15.2535 18.3334 14.622V7.8125L11.2477 12.172C10.8725 12.4029 10.4406 12.5251 10.0001 12.5251C9.55956 12.5251 9.12767 12.4029 8.75246 12.172L1.66675 7.8125Z" fill="white" fill-opacity="0.9"/>
<path d="M18.3334 6.41455V6.28916C18.3334 5.65769 18.0826 5.05208 17.6361 4.60557C17.1895 4.15905 16.5839 3.9082 15.9525 3.9082H4.0477C3.41623 3.9082 2.81063 4.15905 2.36411 4.60557C1.9176 5.05208 1.66675 5.65769 1.66675 6.28916V6.41455L9.37627 11.159C9.56387 11.2744 9.77982 11.3355 10.0001 11.3355C10.2203 11.3355 10.4363 11.2744 10.6239 11.159L18.3334 6.41455Z" fill="#0A0A0A"/>
<path d="M18.3334 6.41455V6.28916C18.3334 5.65769 18.0826 5.05208 17.6361 4.60557C17.1895 4.15905 16.5839 3.9082 15.9525 3.9082H4.0477C3.41623 3.9082 2.81063 4.15905 2.36411 4.60557C1.9176 5.05208 1.66675 5.65769 1.66675 6.28916V6.41455L9.37627 11.159C9.56387 11.2744 9.77982 11.3355 10.0001 11.3355C10.2203 11.3355 10.4363 11.2744 10.6239 11.159L18.3334 6.41455Z" fill="#0A1339"/>
<path d="M18.3334 6.41455V6.28916C18.3334 5.65769 18.0826 5.05208 17.6361 4.60557C17.1895 4.15905 16.5839 3.9082 15.9525 3.9082H4.0477C3.41623 3.9082 2.81063 4.15905 2.36411 4.60557C1.9176 5.05208 1.66675 5.65769 1.66675 6.28916V6.41455L9.37627 11.159C9.56387 11.2744 9.77982 11.3355 10.0001 11.3355C10.2203 11.3355 10.4363 11.2744 10.6239 11.159L18.3334 6.41455Z" fill="white" fill-opacity="0.9"/>
</svg>
