<svg width="14" height="17" viewBox="0 0 14 17" fill="none" xmlns="http://www.w3.org/2000/svg">
<path fill-rule="evenodd" clip-rule="evenodd" d="M6.61667 16.7716L6.675 16.8049L6.69833 16.8183C6.79086 16.8683 6.89439 16.8945 6.99958 16.8945C7.10477 16.8945 7.20831 16.8683 7.30083 16.8183L7.32417 16.8058L7.38333 16.7716C7.70926 16.5783 8.0273 16.372 8.33667 16.1533C9.13756 15.5878 9.88587 14.9514 10.5725 14.2516C12.1925 12.5933 13.875 10.1016 13.875 6.89575C13.875 5.07239 13.1507 3.32371 11.8614 2.03439C10.572 0.74508 8.82336 0.020752 7 0.020752C5.17664 0.020752 3.42795 0.74508 2.13864 2.03439C0.849328 3.32371 0.125 5.07239 0.125 6.89575C0.125 10.1008 1.80833 12.5933 3.4275 14.2516C4.11387 14.9513 4.86189 15.5878 5.6625 16.1533C5.97214 16.3721 6.29045 16.5783 6.61667 16.7716ZM7 9.39575C7.66304 9.39575 8.29893 9.13236 8.76777 8.66352C9.23661 8.19468 9.5 7.55879 9.5 6.89575C9.5 6.23271 9.23661 5.59683 8.76777 5.12799C8.29893 4.65914 7.66304 4.39575 7 4.39575C6.33696 4.39575 5.70107 4.65914 5.23223 5.12799C4.76339 5.59683 4.5 6.23271 4.5 6.89575C4.5 7.55879 4.76339 8.19468 5.23223 8.66352C5.70107 9.13236 6.33696 9.39575 7 9.39575Z" fill="white"/>
</svg>
