<svg width="32" height="32" viewBox="0 0 32 32" fill="none" xmlns="http://www.w3.org/2000/svg">
<rect width="32" height="32" rx="16" fill="#1D4264"/>
<rect width="32" height="32" rx="16" fill="white" fill-opacity="0.96"/>
<path fill-rule="evenodd" clip-rule="evenodd" d="M8.75489 14.059C9.09537 12.7872 9.76467 11.6274 10.6955 10.6962C11.6264 9.76501 12.7859 9.09529 14.0577 8.75435C15.3294 8.4134 16.6685 8.41326 17.9403 8.75393C19.2121 9.09459 20.3718 9.76407 21.3029 10.695L23.2059 12.598H20.0229C19.824 12.598 19.6332 12.6771 19.4926 12.8177C19.3519 12.9584 19.2729 13.1491 19.2729 13.348C19.2729 13.547 19.3519 13.7377 19.4926 13.8784C19.6332 14.019 19.824 14.098 20.0229 14.098H25.0149C25.2138 14.098 25.4046 14.019 25.5452 13.8784C25.6859 13.7377 25.7649 13.547 25.7649 13.348V8.35604C25.7649 8.15713 25.6859 7.96637 25.5452 7.82571C25.4046 7.68506 25.2138 7.60604 25.0149 7.60604C24.816 7.60604 24.6252 7.68506 24.4846 7.82571C24.3439 7.96637 24.2649 8.15713 24.2649 8.35604V11.536L22.3649 9.63604C21.2479 8.5185 19.8563 7.71473 18.3301 7.30555C16.8039 6.89637 15.1969 6.89619 13.6706 7.30505C12.1444 7.71391 10.7526 8.51738 9.63538 9.63469C8.51811 10.752 7.71469 12.1438 7.30589 13.67C7.28041 13.7653 7.27394 13.8645 7.28683 13.9623C7.29973 14.06 7.33175 14.1542 7.38106 14.2395C7.43036 14.3249 7.496 14.3996 7.57421 14.4596C7.65242 14.5196 7.74168 14.5636 7.83689 14.589C7.9321 14.6145 8.03139 14.621 8.1291 14.6081C8.22681 14.5952 8.32102 14.5632 8.40636 14.5139C8.4917 14.4646 8.56649 14.3989 8.62646 14.3207C8.68643 14.2425 8.73041 14.1533 8.75589 14.058L8.75489 14.059ZM24.1629 17.411C24.0677 17.3855 23.9685 17.3789 23.8708 17.3917C23.7731 17.4045 23.6789 17.4364 23.5936 17.4857C23.5082 17.5349 23.4334 17.6004 23.3734 17.6786C23.3134 17.7567 23.2694 17.8459 23.2439 17.941C22.9034 19.2129 22.2341 20.3727 21.3033 21.3039C20.3724 22.2351 19.2128 22.9048 17.9411 23.2457C16.6694 23.5867 15.3303 23.5868 14.0585 23.2462C12.7867 22.9055 11.6269 22.236 10.6959 21.305L8.79389 19.402H11.9769C12.1758 19.402 12.3666 19.323 12.5072 19.1824C12.6479 19.0417 12.7269 18.851 12.7269 18.652C12.7269 18.4531 12.6479 18.2624 12.5072 18.1217C12.3666 17.9811 12.1758 17.902 11.9769 17.902H6.98389C6.78497 17.902 6.59421 17.9811 6.45356 18.1217C6.3129 18.2624 6.23389 18.4531 6.23389 18.652V23.644C6.23389 23.843 6.3129 24.0337 6.45356 24.1744C6.59421 24.315 6.78497 24.394 6.98389 24.394C7.1828 24.394 7.37356 24.315 7.51422 24.1744C7.65487 24.0337 7.73389 23.843 7.73389 23.644V20.464L9.63389 22.364C10.751 23.4816 12.1426 24.2853 13.6689 24.6944C15.1951 25.1036 16.8022 25.1036 18.3285 24.6947C19.8547 24.2857 21.2465 23.4821 22.3637 22.3647C23.4809 21.2473 24.2842 19.8554 24.6929 18.329C24.7442 18.137 24.7172 17.9325 24.6178 17.7604C24.5185 17.5882 24.3548 17.4626 24.1629 17.411Z" fill="#61CD81"/>
</svg>
