<svg width="21" height="21" viewBox="0 0 21 21" fill="none" xmlns="http://www.w3.org/2000/svg">
<g clip-path="url(#clip0_2002_11434)">
<path d="M3.66667 9.31244C4.10869 9.31244 4.53262 9.48803 4.84518 9.80059C5.15774 10.1132 5.33333 10.5371 5.33333 10.9791V11.8124H15.3333V10.9791C15.3333 10.5371 15.5089 10.1132 15.8215 9.80059C16.1341 9.48803 16.558 9.31244 17 9.31244C17.442 9.31244 17.866 9.48803 18.1785 9.80059C18.4911 10.1132 18.6667 10.5371 18.6667 10.9791V15.1458C18.6667 15.3668 18.5789 15.5787 18.4226 15.735C18.2663 15.8913 18.0543 15.9791 17.8333 15.9791H2.83333C2.61232 15.9791 2.40036 15.8913 2.24408 15.735C2.0878 15.5787 2 15.3668 2 15.1458V10.9791C2 10.5371 2.17559 10.1132 2.48816 9.80059C2.80072 9.48803 3.22464 9.31244 3.66667 9.31244Z" stroke="#61CD81" stroke-width="1.5" stroke-linecap="round" stroke-linejoin="round"/>
<path d="M3.66699 9.31244V6.81244C3.66699 6.1494 3.93038 5.51351 4.39923 5.04467C4.86807 4.57583 5.50395 4.31244 6.16699 4.31244H14.5003C15.1634 4.31244 15.7993 4.57583 16.2681 5.04467C16.7369 5.51351 17.0003 6.1494 17.0003 6.81244V9.31244" stroke="#61CD81" stroke-width="1.5" stroke-linecap="round" stroke-linejoin="round"/>
<path d="M10.3335 4.31244V11.8124" stroke="#61CD81" stroke-width="1.5" stroke-linecap="round" stroke-linejoin="round"/>
</g>
<defs>
<clipPath id="clip0_2002_11434">
<rect width="20" height="20" fill="white" transform="translate(0.333496 0.145752)"/>
</clipPath>
</defs>
</svg>
