<svg width="20" height="21" viewBox="0 0 20 21" fill="none" xmlns="http://www.w3.org/2000/svg">
<g clip-path="url(#clip0_2103_477)">
<path d="M18.3105 4.19523C18.241 4.00983 18.1714 3.96348 18.0787 3.94031C17.8238 3.84761 17.4298 3.98668 17.4298 3.98668C17.4298 3.98668 2.80654 9.24735 1.97224 9.82672C1.78684 9.94259 1.74049 10.0353 1.69414 10.1048C1.55509 10.522 1.99541 10.7074 1.99541 10.7074L5.77291 11.9356C5.77291 11.9356 5.91196 11.9356 5.95831 11.9356C6.81577 11.4026 14.5793 6.48955 15.0197 6.32733C15.0892 6.32733 15.1355 6.32732 15.1355 6.37367C14.9501 6.99939 8.20627 13.0017 8.20627 13.0017C8.20627 13.0017 8.18309 13.0248 8.15991 13.0712L7.81229 16.8023C7.81229 16.8023 7.67325 17.9379 8.80881 16.8023C9.61993 15.9912 10.4079 15.3192 10.7787 14.9947C12.0765 15.8985 13.4669 16.8719 14.0695 17.4049C14.3708 17.6598 14.6257 17.7062 14.8343 17.7062C15.4136 17.7062 15.5759 17.0573 15.5759 17.0573C15.5759 17.0573 18.241 6.32731 18.3337 4.89047C18.3337 4.75142 18.3337 4.65875 18.3337 4.56605C18.3337 4.427 18.3337 4.28794 18.3105 4.24159V4.19523Z" fill="#4EABE7"/>
</g>
<defs>
<clipPath id="clip0_2103_477">
<rect width="20" height="20" fill="white" transform="translate(0 0.574951)"/>
</clipPath>
</defs>
</svg>
