<svg width="20" height="21" viewBox="0 0 20 21" fill="none" xmlns="http://www.w3.org/2000/svg">
<g clip-path="url(#clip0_2103_485)">
<path d="M6.96195 17.3869C13.2267 17.3869 16.6438 12.2042 16.6438 7.70501C16.6438 3.20579 16.6438 7.42026 16.6438 7.26838C17.3083 6.79378 17.8778 6.18629 18.3334 5.50286C17.7259 5.76864 17.0615 5.95848 16.3781 6.03442C17.0805 5.61677 17.612 4.95233 17.8778 4.155C17.2134 4.55366 16.492 4.81944 15.7136 4.99029C15.0872 4.32585 14.2139 3.9082 13.2267 3.9082C11.3473 3.9082 9.82856 5.42693 9.82856 7.30635C9.82856 9.18578 9.86653 7.8379 9.92348 8.0847C7.09486 7.95181 4.58896 6.58496 2.91836 4.53468C2.6336 5.02826 2.46273 5.61677 2.46273 6.24324C2.46273 7.42026 3.07023 8.46438 3.98146 9.07187C3.43092 9.07187 2.89937 8.90101 2.44376 8.65422C2.44376 8.65422 2.44376 8.6732 2.44376 8.69219C2.44376 10.3438 3.62077 11.7107 5.17747 12.0334C4.89271 12.1093 4.58895 12.1473 4.2852 12.1473C3.98146 12.1473 3.84857 12.1283 3.63975 12.0903C4.07638 13.4382 5.32933 14.4254 6.81009 14.4444C5.65206 15.3556 4.1713 15.9061 2.57663 15.9061C0.981972 15.9061 2.0261 15.9061 1.76032 15.8682C3.26006 16.8364 5.06356 17.4059 6.98095 17.4059" fill="#2DAAE0"/>
</g>
<defs>
<clipPath id="clip0_2103_485">
<rect width="20" height="20" fill="white" transform="translate(0 0.574951)"/>
</clipPath>
</defs>
</svg>
