<svg width="32" height="32" viewBox="0 0 32 32" fill="none" xmlns="http://www.w3.org/2000/svg">
<rect width="32" height="32" rx="16" fill="white"/>
<path d="M20.2667 9C22.3289 9 24 10.6711 24 12.7333V15.4C24 15.5414 23.9438 15.6771 23.8438 15.7771L23.4667 15.9333C23.4667 15.9333 23.1896 15.8771 23.0895 15.7771C22.9895 15.6771 22.9333 15.5414 22.9333 15.4V12.7333C22.9333 12.0261 22.6524 11.3478 22.1523 10.8477C21.6522 10.3476 20.9739 10.0667 20.2667 10.0667C19.5594 10.0667 18.8811 10.3476 18.381 10.8477C17.881 11.3478 17.6 12.0261 17.6 12.7333V14.8667C18.1658 14.8667 18.7084 15.0914 19.1085 15.4915C19.5086 15.8916 19.7333 16.4342 19.7333 17V21.8C19.7333 22.3658 19.5086 22.9084 19.1085 23.3085C18.7084 23.7086 18.1658 23.9333 17.6 23.9333H10.1333C9.56754 23.9333 9.02492 23.7086 8.62484 23.3085C8.22476 22.9084 8 22.3658 8 21.8V17C8 16.4342 8.22476 15.8916 8.62484 15.4915C9.02492 15.0914 9.56754 14.8667 10.1333 14.8667H16.5333V12.7333C16.5333 10.6711 18.2044 9 20.2667 9Z" fill="#61CD81"/>
</svg>
