<svg width="20" height="21" viewBox="0 0 20 21" fill="none" xmlns="http://www.w3.org/2000/svg">
<g clip-path="url(#clip0_2103_481)">
<path d="M17.9823 6.57097C17.7976 5.85035 17.2248 5.29602 16.5041 5.09277C15.2107 4.7417 10.0001 4.7417 10.0001 4.7417C10.0001 4.7417 4.80792 4.7417 3.49602 5.09277C2.7754 5.27754 2.22108 5.85035 2.01782 6.57097C1.66675 7.86439 1.66675 10.5806 1.66675 10.5806C1.66675 10.5806 1.66675 13.2783 2.01782 14.5902C2.2026 15.3108 2.7754 15.8651 3.49602 16.0684C4.78944 16.4195 10.0001 16.4195 10.0001 16.4195C10.0001 16.4195 15.1922 16.4195 16.5041 16.0684C17.2248 15.8836 17.7791 15.3108 17.9823 14.5902C18.3334 13.2968 18.3334 10.5806 18.3334 10.5806C18.3334 10.5806 18.3334 7.88287 17.9823 6.57097ZM8.35559 13.075V8.08612L12.6793 10.5806L8.35559 13.075Z" fill="#E15141"/>
</g>
<defs>
<clipPath id="clip0_2103_481">
<rect width="20" height="20" fill="white" transform="translate(0 0.574951)"/>
</clipPath>
</defs>
</svg>
